<svg xmlns="http://www.w3.org/2000/svg" xmlns:xlink="http://www.w3.org/1999/xlink">

    <!-- иконка стрелки для карусели -->
    <symbol id="arrow" viewBox="0 0 43 38">
        <g>
            <path d="M41.7678 20.7678C42.7441 19.7915 42.7441 18.2085 41.7678 17.2322L25.8579 1.32233C24.8816 0.346018 23.2986 0.346018 22.3223 1.32233C21.346 2.29864 21.346 3.88155 22.3223 4.85786L36.4645 19L22.3223 33.1421C21.346 34.1184 21.346 35.7014 22.3223 36.6777C23.2986 37.654 24.8816 37.654 25.8579 36.6777L41.7678 20.7678ZM2.18557e-07 21.5L40 21.5L40 16.5L-2.18557e-07 16.5L2.18557e-07 21.5Z"
                  fill="url(#paint0_linear_0_40)"/>
            <defs>
                <linearGradient id="paint0_linear_0_40" x1="4.0884" y1="19" x2="7.59664" y2="29.4598"
                                gradientUnits="userSpaceOnUse">
                    <stop stop-color="#C89AFC"/>
                    <stop offset="1" stop-color="#7C6AFA"/>
                </linearGradient>
            </defs>
        </g>
    </symbol>

    <!-- иконка лого vk -->
    <symbol id="vk" viewBox="0 0 24 24">
        <g>
            <path fill-rule="evenodd" clip-rule="evenodd"
                  d="M21.3625 14.8137C21.3625 14.8137 23.3029 16.7691 23.7829 17.674C23.7923 17.687 23.7996 17.7015 23.8045 17.7168C24.0001 18.0511 24.0481 18.3131 23.9521 18.5066C23.7901 18.8261 23.2417 18.9865 23.0557 19H19.6261C19.3873 19 18.8905 18.9363 18.2857 18.5102C17.8237 18.1809 17.3641 17.6384 16.9189 17.1083C16.2541 16.321 15.6793 15.6377 15.0973 15.6377C15.0238 15.6376 14.9508 15.65 14.8813 15.6745C14.4409 15.8165 13.8817 16.4569 13.8817 18.1625C13.8817 18.6963 13.4689 19 13.1797 19H11.6089C11.0737 19 8.28732 18.809 5.81651 16.1508C2.78891 12.8963 0.0697081 6.36768 0.0433081 6.31013C-0.125892 5.8877 0.229308 5.65751 0.613309 5.65751H4.07651C4.54091 5.65751 4.69211 5.94403 4.79771 6.20115C4.92011 6.49624 5.37371 7.67658 6.11771 9.00262C7.32252 11.16 8.06292 12.038 8.65452 12.038C8.76566 12.0383 8.87493 12.0087 8.97132 11.9522C9.74412 11.5188 9.60012 8.70264 9.56412 8.12227C9.56412 8.00962 9.56292 6.86479 9.16692 6.31135C8.88372 5.91464 8.40132 5.76036 8.10972 5.70404C8.18772 5.58895 8.35332 5.41263 8.56572 5.30855C9.09492 5.03918 10.0513 5 11.0005 5H11.5273C12.5569 5.01469 12.8233 5.08204 13.1977 5.17876C13.9513 5.36243 13.9657 5.86077 13.8997 7.55781C13.8805 8.04268 13.8601 8.58877 13.8601 9.23159C13.8601 9.36872 13.8541 9.52178 13.8541 9.67728C13.8313 10.5478 13.8013 11.5286 14.4037 11.9314C14.4819 11.9811 14.5721 12.0074 14.6641 12.0073C14.8729 12.0073 15.4981 12.0073 17.1937 9.03813C17.9377 7.72678 18.5137 6.18034 18.5533 6.06402C18.5869 5.99913 18.6877 5.81669 18.8101 5.74322C18.8972 5.69595 18.9947 5.67234 19.0933 5.67465H23.1673C23.6113 5.67465 23.9125 5.74322 23.9713 5.91464C24.0697 6.19258 23.9521 7.04111 22.0921 9.60749C21.7789 10.0348 21.5041 10.4046 21.2629 10.7278C19.5769 12.9857 19.5769 13.0995 21.3625 14.8137Z"
                  fill="white"/>
        </g>
    </symbol>

    <!-- иконка лого ftml -->
    <symbol id="logo" viewBox="0 0 40 42">
        <g>
            <path d="M0 8.16663H40L36.4664 38.358L20 42L3.53357 38.4636L0 8.16663Z" fill="url(#paint0_linear_0_89)"/>
            <path d="M20 10.5H36L32.7778 36.7053L20 39.6667V10.5Z" fill="#5755B7"/>
            <path d="M20 10.5H4L7.22222 36.7053L20 39.6667V10.5Z" fill="url(#paint1_linear_0_89)"/>
            <path d="M9.08333 32.6972L7 14.0001H32L31.1667 17.9255H12.5556L12.8333 21.3343L30.6111 21.4376L30.0556 25.2597H13.25L13.9444 33.8335L9.08333 32.6972Z"
                  fill="white"/>
            <path d="M4.15123 5.83333L4 0H12V2.04167L6.57089 2.05247V2.70062H9.44424V3.88889H6.57089V5.83333H4.15123Z"
                  fill="white"/>
            <path d="M13 1.94444V0H20V1.94444H17.494V5.83333H15.114L15.1 1.94444H13Z" fill="white"/>
            <path d="M21 5.83333V0H23.7771L25.391 2.05247L27.0921 0H29.9128L30 5.83333H27.2956L27.3393 2.91667L25.5073 4.94753L23.4281 2.91667L23.4717 5.83333H21Z"
                  fill="white"/>
            <path d="M31 0H33.5256V3.92924L37 3.96226V5.83333H31V0Z" fill="white"/>
            <defs>
                <linearGradient id="paint0_linear_0_89" x1="-2.70934" y1="11.2268" x2="32.7175" y2="42.5923"
                                gradientUnits="userSpaceOnUse">
                    <stop offset="0.2878" stop-color="#5D48B5"/>
                    <stop offset="1" stop-color="#383493"/>
                </linearGradient>
                <linearGradient id="paint1_linear_0_89" x1="6.69212" y1="8.78931" x2="16.3034" y2="43.7692"
                                gradientUnits="userSpaceOnUse">
                    <stop offset="0.2878" stop-color="#5D48B5"/>
                    <stop offset="1" stop-color="#383493"/>
                </linearGradient>
            </defs>
        </g>
    </symbol>
</svg>
